<svg width="26" height="26" viewBox="0 0 26 26" fill="none" xmlns="http://www.w3.org/2000/svg">
<path d="M16.25 17.3432L16.26 17.3321" stroke="#0009AB" stroke-width="1.5" stroke-linecap="round" stroke-linejoin="round"/>
<path d="M9.75 17.3432L9.76 17.3321" stroke="#0009AB" stroke-width="1.5" stroke-linecap="round" stroke-linejoin="round"/>
<path d="M14.0833 6.5H16.2499C19.2414 6.5 21.6666 8.92513 21.6666 11.9167V19.5C21.6666 20.6966 20.6966 21.6667 19.4999 21.6667H6.49992C5.3033 21.6667 4.33325 20.6966 4.33325 19.5V11.9167C4.33325 8.92513 6.75838 6.5 9.74992 6.5H14.0833ZM14.0833 6.5L15.1666 2.16666L14.0833 6.5ZM15.1666 2.16666H18.4166H15.1666ZM15.1666 2.16666H7.58325H15.1666Z" fill="#0009AB"/>
<path d="M14.0833 6.5H16.2499C19.2414 6.5 21.6666 8.92513 21.6666 11.9167V19.5C21.6666 20.6966 20.6966 21.6667 19.4999 21.6667H6.49992C5.3033 21.6667 4.33325 20.6966 4.33325 19.5V11.9167C4.33325 8.92513 6.75838 6.5 9.74992 6.5H14.0833ZM14.0833 6.5L15.1666 2.16666M15.1666 2.16666H18.4166M15.1666 2.16666H7.58325" stroke="#0009AB" stroke-width="1.5" stroke-linecap="round" stroke-linejoin="round"/>
<path d="M11.3749 21.6667L9.20825 24.375" stroke="#0009AB" stroke-width="1.5" stroke-linecap="round"/>
<path d="M14.625 21.6667L16.7917 24.375" stroke="#0009AB" stroke-width="1.5" stroke-linecap="round"/>
<path d="M17.875 21.6667L20.0417 24.375" stroke="#0009AB" stroke-width="1.5" stroke-linecap="round"/>
<path d="M8.12492 21.6667L5.95825 24.375" stroke="#0009AB" stroke-width="1.5" stroke-linecap="round"/>
<path d="M10.4093 9.75H15.5905C17.1513 9.75 18.4166 11.0153 18.4166 12.5761C18.4166 12.8102 18.2268 13 17.9927 13H8.00716C7.77304 13 7.58325 12.8102 7.58325 12.5761C7.58325 11.0153 8.84853 9.75 10.4093 9.75Z" stroke="white" stroke-width="1.5" stroke-linecap="round" stroke-linejoin="round"/>
</svg>
